<svg width="14" height="23" viewBox="0 0 14 23" fill="none" xmlns="http://www.w3.org/2000/svg">
<path d="M8.51465 0.699219V3.72168H11.9658V6.3457H4.96973C4.48027 6.34575 4.01115 6.54064 3.66504 6.88672C3.31895 7.23281 3.12411 7.70197 3.12402 8.19141C3.12402 8.68096 3.31887 9.1509 3.66504 9.49707C4.01114 9.84305 4.48035 10.0371 4.96973 10.0371H9.03027C10.2151 10.0384 11.3516 10.5099 12.1895 11.3477C13.0273 12.1855 13.4986 13.3219 13.5 14.5068V14.6885C13.4987 15.8734 13.0273 17.0098 12.1895 17.8477C11.4039 18.6331 10.3562 19.0965 9.25195 19.1523L9.03027 19.1582H8.51465V22H5.89062V19.1582H1.6582V16.5342H9.0293C9.51883 16.5336 9.98881 16.3383 10.335 15.9922C10.6809 15.6461 10.8754 15.1768 10.876 14.6875V14.5078L10.8672 14.3252C10.8248 13.9029 10.6376 13.5059 10.335 13.2031C10.0321 12.9002 9.63444 12.7133 9.21191 12.6709L9.0293 12.6621H4.96973C3.78441 12.6621 2.64777 12.1906 1.80957 11.3525C0.971298 10.5143 0.5 9.3769 0.5 8.19141C0.500084 7.00602 0.971373 5.86945 1.80957 5.03125C2.64779 4.19306 3.78433 3.72173 4.96973 3.72168H5.89062V0.699219H8.51465Z" fill="#00CE3A" stroke="#00CE3A"/>
</svg>
