<svg width="206" height="206" viewBox="0 0 206 206" fill="none" xmlns="http://www.w3.org/2000/svg">
<path d="M93.2143 195.209C93.3013 194.109 94.001 193.378 95.4206 193.49L97.4303 193.649L97.1366 197.365L95.1269 197.206C93.7073 197.094 93.126 196.326 93.2143 195.209ZM98.8377 198.992L99.7138 187.907L97.8955 187.763L97.5451 192.197L96.1574 192.087L93.9558 187.452L91.7865 187.28L94.1669 192.091C92.2642 192.406 91.4515 193.754 91.3481 195.062C91.2056 196.864 92.3779 198.482 95.0097 198.689L98.8377 198.992Z" fill="#4361EE"/>
<path d="M81.5748 192.813C80.2495 192.508 79.3987 191.426 79.6726 190.093L84.4282 191.188C83.9288 192.502 82.7754 193.09 81.5748 192.813ZM78.6291 187.21L80.5469 187.651C81.0287 187.056 81.7588 186.666 82.8503 186.917C84.16 187.219 84.976 188.31 84.7741 189.757L78.2098 188.246C78.0948 188.531 78.0146 188.808 77.9464 189.105C77.3649 191.631 78.7043 193.729 81.1522 194.292C83.6937 194.877 85.8385 193.549 86.4596 190.851C87.0806 188.154 85.6584 185.988 83.1949 185.42C81.09 184.936 79.457 185.824 78.6291 187.21Z" fill="#4361EE"/>
<path d="M74.1077 187.656C75.1007 185.124 74.0712 182.709 71.9411 181.874C70.5707 181.336 69.3306 181.606 68.5347 182.102L69.0137 180.88L67.3007 180.209L64.0821 188.416L65.7951 189.088L66.2624 187.896C66.506 188.765 67.2023 189.794 68.5876 190.338C70.7474 191.185 73.1147 190.188 74.1077 187.656ZM67.4015 184.992C68.0966 183.219 69.6945 182.694 70.9755 183.197C72.2417 183.693 73.06 185.2 72.3649 186.972C71.6698 188.745 70.0745 189.219 68.8084 188.723C67.5274 188.22 66.7122 186.749 67.4015 184.992Z" fill="#4361EE"/>
<path d="M63.2427 178.041L61.6397 177.171L55.9906 187.576L57.5936 188.447L63.2427 178.041Z" fill="#4361EE"/>
<path d="M37.8917 173.726L42.5645 177.716L49.7949 169.246L45.122 165.257L44.1559 166.389L47.4415 169.194L45.2288 171.786L42.3082 169.292L41.3421 170.424L44.2626 172.917L42.1434 175.4L38.8578 172.595L37.8917 173.726Z" fill="#4361EE"/>
<path d="M35.2389 158.348C32.9325 160.545 36.9931 163.587 35.6708 164.773C35.2301 165.168 34.5905 165.054 33.9389 164.328C33.2766 163.589 33.2745 162.796 33.8035 162.235L32.5858 160.877C31.3396 162.124 31.4174 163.816 32.7526 165.305C34.1412 166.854 35.8629 167.072 36.9112 166.132C39.3174 163.975 35.1607 160.825 36.4472 159.671C36.8998 159.265 37.6072 159.383 38.3122 160.169C38.9852 160.92 39.0038 161.827 38.5105 162.356L39.7709 163.761C40.9087 162.634 40.8444 160.693 39.4344 159.12C38.0458 157.572 36.3467 157.354 35.2389 158.348Z" fill="#4361EE"/>
<path d="M32.0445 154.023C33.5111 152.993 33.4872 151.818 32.5863 150.534L31.7589 149.356L30.5148 150.229L31.1584 151.146C31.5997 151.774 31.5241 152.14 30.9872 152.517L26.9933 155.321L25.7613 153.566L24.5435 154.421L25.7754 156.176L23.9814 157.436L25.0387 158.942L26.8327 157.682L27.4303 158.533L28.6481 157.678L28.0505 156.827L32.0445 154.023Z" fill="#4361EE"/>
<path d="M25.716 148.112C28.124 146.847 28.9255 144.347 27.8614 142.322C27.1769 141.019 26.0625 140.411 25.1364 140.265L26.2979 139.655L25.4421 138.026L17.6375 142.126L18.4932 143.755L19.6264 143.16C19.242 143.976 19.095 145.21 19.787 146.527C20.8659 148.581 23.308 149.377 25.716 148.112ZM22.3885 141.709C24.074 140.823 25.6258 141.472 26.2657 142.69C26.8982 143.894 26.531 145.569 24.8454 146.455C23.1598 147.34 21.6432 146.655 21.0107 145.451C20.3708 144.233 20.7171 142.587 22.3885 141.709Z" fill="#4361EE"/>
<path d="M21.3981 134.332C23.0781 133.709 23.3537 132.566 22.8082 131.096L22.3073 129.745L20.8822 130.274L21.2718 131.324C21.539 132.044 21.373 132.379 20.758 132.607L16.1828 134.305L15.437 132.295L14.0419 132.812L14.7877 134.822L12.7326 135.585L13.3727 137.31L15.4278 136.547L15.7896 137.522L17.1846 137.005L16.8229 136.03L21.3981 134.332Z" fill="#4361EE"/>
<path d="M12.9088 123.485C12.5966 122.161 13.1914 120.919 14.5077 120.576L15.6281 125.326C14.2292 125.458 13.1916 124.684 12.9088 123.485ZM16.6329 118.365L17.0847 120.28C17.8315 120.45 18.5042 120.932 18.7613 122.022C19.0699 123.33 18.4521 124.544 17.0644 125.003L15.518 118.447C15.2111 118.47 14.9271 118.521 14.6312 118.591C12.1084 119.186 10.8188 121.315 11.3955 123.76C11.9942 126.298 14.1342 127.634 16.8282 126.999C19.5223 126.363 20.8367 124.13 20.2563 121.669C19.7604 119.567 18.2417 118.495 16.6329 118.365Z" fill="#4361EE"/>
<path d="M14.9012 97.9261C10.8373 97.9011 12.3691 103.799 9.85711 103.783C8.78513 103.777 8.27816 102.957 8.31664 101.902C8.35572 100.75 9.04774 100.098 9.80012 100.039L9.8125 98.0228C7.90755 98.1711 6.77833 99.6682 6.76526 101.796C6.7513 104.068 7.95775 105.628 9.90971 105.64C14.0056 105.665 12.2979 99.7501 14.9859 99.7666C15.9299 99.7724 16.6134 100.497 16.6056 101.777C16.5978 103.041 15.8579 103.676 14.9454 103.75L14.9334 105.702C16.9014 105.715 18.1279 104.01 18.1415 101.786C18.1568 99.3061 16.5652 97.9363 14.9012 97.9261Z" fill="#4361EE"/>
<path d="M18.5736 93.2591L18.8011 91.4494L10.0539 90.3499L9.82641 92.1597L18.5736 93.2591ZM8.78326 91.0933C8.86308 90.4583 8.41893 89.8864 7.76805 89.8046C7.11717 89.7228 6.54531 90.1669 6.4655 90.8019C6.38368 91.4528 6.82784 92.0247 7.47871 92.1065C8.12959 92.1883 8.70145 91.7441 8.78326 91.0933Z" fill="#4361EE"/>
<path d="M21.3296 79.315L21.7746 77.5626L16.7346 76.2827C14.3464 75.6762 12.7083 76.8615 12.2003 78.862C11.9404 79.8855 12.1188 80.9378 12.671 81.6888L11.694 81.4407L11.245 83.2086L19.7898 85.3785L20.2388 83.6106L15.4624 82.3977C13.8961 81.9999 13.3063 80.9422 13.6371 79.6396C13.964 78.3524 14.987 77.7043 16.5532 78.102L21.3296 79.315Z" fill="#4361EE"/>
<path d="M19.1275 71.8174C21.6812 72.8854 24.0258 71.9236 25.0012 69.5913C25.8346 67.5986 25.2708 65.8366 23.868 64.7123L23.1087 66.5279C23.8204 67.1898 24.004 67.9949 23.5842 68.9987C23.0162 70.3567 21.6359 70.8373 19.8498 70.0904C18.0785 69.3495 17.4513 68.0293 18.0192 66.6713C18.439 65.6676 19.2125 65.228 20.1122 65.2747L20.8715 63.4591C18.9678 63.2006 17.4356 64.0859 16.6022 66.0787C15.6268 68.4109 16.5886 70.7556 19.1275 71.8174Z" fill="#4361EE"/>
<path d="M24.0409 54.9603C24.7387 53.793 26.0304 53.3162 27.2141 53.9865L24.7102 58.1752C23.6139 57.2961 23.4088 56.0178 24.0409 54.9603ZM30.279 53.88L29.2692 55.5692C29.6873 56.2106 29.8341 57.0253 29.2594 57.9866C28.5698 59.1402 27.2808 59.5814 25.9654 58.9442L29.4217 53.1625C29.1854 52.9653 28.9464 52.8038 28.6854 52.6478C26.4607 51.3178 24.0525 51.9474 22.7636 54.1035C21.4254 56.342 22.0303 58.7914 24.4062 60.2117C26.782 61.6319 29.2807 60.9446 30.5778 58.7748C31.6861 56.9208 31.3429 55.0938 30.279 53.88Z" fill="#4361EE"/>
<path d="M39.877 45.7302L45.3268 40.1835L44.2425 39.1182L40.6879 42.7361C40.7786 40.2009 41.2563 36.6328 39.2362 34.648C37.7411 33.179 35.7834 33.1397 34.1238 34.8288C32.6773 36.3011 32.4123 38.3287 34.1707 40.1461L35.4042 38.8906C34.5019 37.9369 34.345 36.8182 35.2421 35.9051C36.1952 34.935 37.1588 35.1415 38.0261 35.9937C39.6582 37.5973 39.1351 41.1432 38.9297 44.7995L39.877 45.7302Z" fill="#4361EE"/>
<path d="M45.2352 32.6022C47.2793 35.3091 49.537 36.8121 52.1418 34.8451C54.7465 32.8782 53.9188 30.2953 51.8747 27.5884C49.8692 24.9325 47.6114 23.4296 45.0067 25.3965C42.4019 27.3635 43.2296 29.9464 45.2352 32.6022ZM50.4447 28.6683C51.8235 30.4942 52.8372 32.2348 51.139 33.5172C49.4408 34.7996 48.044 33.3482 46.6652 31.5223C45.3539 29.7858 44.3112 28.0068 46.0094 26.7244C47.7076 25.4421 49.1333 26.9318 50.4447 28.6683Z" fill="#4361EE"/>
<path d="M59.2282 29.8635L66.0547 26.1398L65.3268 24.8054L60.8742 27.2342C61.6978 24.8349 63.1918 21.5595 61.8356 19.0733C60.8319 17.2332 58.9702 16.6267 56.8913 17.7607C55.0793 18.749 54.2366 20.6121 55.391 22.8621L56.9361 22.0193C56.3499 20.8445 56.5249 19.7284 57.6486 19.1155C58.8425 18.4642 59.7044 18.9418 60.2867 20.0093C61.3824 22.0179 59.8513 25.2588 58.5923 28.6976L59.2282 29.8635Z" fill="#4361EE"/>
<path d="M70.0649 24.386L77.3514 21.6708L76.8207 20.2465L72.0679 22.0175C73.2243 19.7596 75.1689 16.7299 74.18 14.0762C73.4482 12.1121 71.6915 11.247 69.4726 12.0738C67.5385 12.7945 66.4394 14.5188 67.2621 16.9101L68.9113 16.2955C68.4982 15.0493 68.83 13.9695 70.0295 13.5226C71.3039 13.0477 72.0892 13.643 72.5137 14.7824C73.3126 16.9264 71.3364 19.9167 69.6012 23.1415L70.0649 24.386Z" fill="#4361EE"/>
<path d="M89.492 13.9468L96.0216 13.1668L95.8394 11.6417L89.3098 12.4217L89.492 13.9468Z" fill="#4361EE"/>
<path d="M116.854 11.2196C116.717 12.3152 115.986 13.0143 114.573 12.8386L112.572 12.59L113.032 8.89046L115.032 9.1391C116.445 9.31473 116.992 10.1082 116.854 11.2196ZM111.405 7.18885L110.034 18.224L111.844 18.4489L112.392 14.0349L113.774 14.2066L115.766 18.9363L117.925 19.2047L115.762 14.2925C117.677 14.0629 118.55 12.7525 118.711 11.4505C118.934 9.6563 117.836 7.98807 115.216 7.66246L111.405 7.18885Z" fill="#4361EE"/>
<path d="M128.374 14.1342C129.684 14.4984 130.486 15.6179 130.153 16.9368L125.451 15.6301C126.008 14.3403 127.187 13.8043 128.374 14.1342ZM131.066 19.8643L129.17 19.3373C128.662 19.9102 127.915 20.2673 126.836 19.9674C125.541 19.6075 124.775 18.4812 125.041 17.044L131.531 18.8478C131.659 18.5677 131.751 18.2945 131.833 18.0016C132.527 15.5043 131.283 13.3484 128.862 12.6757C126.35 11.9774 124.148 13.2087 123.406 15.8756C122.665 18.5425 123.989 20.7704 126.425 21.4473C128.506 22.0257 130.177 21.2114 131.066 19.8643Z" fill="#4361EE"/>
<path d="M135.603 19.6208C134.497 22.1061 135.418 24.5643 137.508 25.4941C138.853 26.0923 140.104 25.8782 140.921 25.4187L140.388 26.6175L142.069 27.3653L145.652 19.3101L143.971 18.5623L143.451 19.7319C143.246 18.8529 142.597 17.7935 141.237 17.1888C139.118 16.246 136.708 17.1355 135.603 19.6208ZM142.183 22.5826C141.409 24.3223 139.789 24.7751 138.532 24.2159C137.289 23.6632 136.539 22.1213 137.313 20.3816C138.087 18.6419 139.702 18.2395 140.944 18.7922C142.202 19.3514 142.95 20.8576 142.183 22.5826Z" fill="#4361EE"/>
<path d="M146.027 29.7122L147.589 30.6534L153.698 20.5113L152.136 19.5701L146.027 29.7122Z" fill="#4361EE"/>
<path d="M171.159 35.1574L166.669 30.9631L159.067 39.1004L163.557 43.2948L164.572 42.2074L161.416 39.2583L163.742 36.768L166.548 39.3895L167.564 38.3021L164.758 35.6807L166.986 33.2956L170.143 36.2447L171.159 35.1574Z" fill="#4361EE"/>
<path d="M173.121 50.6393C175.523 48.5476 171.603 45.3265 172.977 44.2012C173.435 43.8261 174.069 43.9687 174.687 44.7238C175.316 45.4913 175.282 46.2838 174.729 46.8199L175.884 48.2311C177.185 47.0416 177.183 45.3474 175.916 43.8001C174.598 42.1909 172.888 41.8957 171.799 42.7878C169.298 44.8357 173.31 48.1682 171.973 49.2631C171.502 49.6483 170.801 49.4989 170.132 48.682C169.493 47.9021 169.515 46.9947 170.032 46.489L168.836 45.0284C167.648 46.1041 167.626 48.046 168.964 49.6799C170.282 51.2891 171.969 51.5821 173.121 50.6393Z" fill="#4361EE"/>
<path d="M176.118 55.1028C174.607 56.0658 174.578 57.2414 175.421 58.5638L176.195 59.7782L177.477 58.9614L176.875 58.0168C176.462 57.3691 176.554 57.0071 177.107 56.6546L181.223 54.0321L182.375 55.8403L183.63 55.0406L182.477 53.2325L184.326 52.0546L183.337 50.5028L181.489 51.6808L180.93 50.8037L179.675 51.6033L180.234 52.4804L176.118 55.1028Z" fill="#4361EE"/>
<path d="M182.176 61.2915C179.714 62.4474 178.801 64.9086 179.773 66.9797C180.399 68.3122 181.485 68.9689 182.403 69.1562L181.216 69.7138L181.998 71.3794L189.978 67.6329L189.196 65.9673L188.038 66.5113C188.458 65.7129 188.66 64.4868 188.028 63.1398C187.042 61.0397 184.638 60.1357 182.176 61.2915ZM185.213 67.8372C183.49 68.6463 181.969 67.9287 181.384 66.6831C180.806 65.452 181.248 63.7952 182.971 62.9861C184.695 62.177 186.179 62.9295 186.757 64.1605C187.342 65.4061 186.922 67.0348 185.213 67.8372Z" fill="#4361EE"/>
<path d="M185.872 75.2506C184.166 75.7982 183.84 76.9279 184.319 78.4209L184.759 79.7921L186.206 79.3276L185.864 78.2612C185.629 77.5299 185.81 77.2031 186.435 77.0026L191.081 75.5116L191.736 77.553L193.153 77.0984L192.498 75.0569L194.585 74.3871L194.023 72.6351L191.936 73.3049L191.618 72.3146L190.201 72.7693L190.519 73.7596L185.872 75.2506Z" fill="#4361EE"/>
<path d="M193.868 86.4672C194.12 87.8035 193.47 89.0174 192.14 89.3015L191.233 84.5064C192.637 84.4365 193.639 85.2566 193.868 86.4672ZM189.918 91.4151L189.552 89.4813C188.814 89.279 188.164 88.7669 187.955 87.6664C187.706 86.3458 188.377 85.1604 189.784 84.7641L191.035 91.3829C191.343 91.3736 191.629 91.3358 191.928 91.2793C194.475 90.7978 195.858 88.7287 195.392 86.2604C194.907 83.6978 192.829 82.267 190.109 82.7812C187.39 83.2954 185.977 85.4678 186.446 87.9518C186.847 90.0741 188.317 91.213 189.918 91.4151Z" fill="#4361EE"/>
<path d="M190.733 111.911C194.792 112.118 193.526 106.158 196.034 106.286C197.105 106.34 197.575 107.181 197.489 108.234C197.398 109.383 196.678 110.003 195.924 110.029L195.821 112.042C197.731 111.979 198.926 110.534 199.034 108.409C199.15 106.14 198.014 104.528 196.065 104.429C191.974 104.22 193.415 110.205 190.731 110.069C189.788 110.021 189.138 109.266 189.203 107.988C189.267 106.726 190.035 106.124 190.95 106.091L191.049 104.141C189.084 104.041 187.782 105.689 187.669 107.91C187.543 110.387 189.071 111.826 190.733 111.911Z" fill="#4361EE"/>
<path d="M186.855 116.409L186.547 118.207L195.236 119.697L195.544 117.899L186.855 116.409ZM196.539 119.011C196.431 119.642 196.849 120.233 197.495 120.344C198.142 120.455 198.733 120.037 198.841 119.406C198.952 118.759 198.534 118.168 197.887 118.057C197.241 117.946 196.65 118.365 196.539 119.011Z" fill="#4361EE"/>
<path d="M183.478 130.216L182.955 131.947L187.933 133.451C190.291 134.164 191.981 133.053 192.578 131.077C192.883 130.066 192.752 129.007 192.234 128.232L193.199 128.524L193.727 126.778L185.288 124.227L184.76 125.973L189.477 127.399C191.024 127.866 191.566 128.949 191.177 130.236C190.793 131.507 189.742 132.109 188.195 131.641L183.478 130.216Z" fill="#4361EE"/>
<path d="M185.342 137.804C182.839 136.623 180.453 137.479 179.375 139.765C178.453 141.719 178.937 143.504 180.288 144.69L181.128 142.91C180.447 142.217 180.299 141.405 180.764 140.421C181.392 139.09 182.792 138.671 184.543 139.497C186.28 140.317 186.847 141.664 186.219 142.995C185.755 143.979 184.962 144.383 184.065 144.296L183.226 146.076C185.116 146.42 186.686 145.604 187.608 143.65C188.687 141.364 187.831 138.979 185.342 137.804Z" fill="#4361EE"/>
<path d="M179.679 154.425C178.93 155.56 177.618 155.978 176.465 155.256L179.154 151.183C180.21 152.11 180.358 153.397 179.679 154.425ZM173.399 155.225L174.483 153.582C174.094 152.923 173.984 152.102 174.601 151.168C175.342 150.046 176.649 149.663 177.935 150.359L174.223 155.98C174.45 156.187 174.682 156.36 174.936 156.527C177.099 157.955 179.533 157.434 180.917 155.338C182.354 153.162 181.859 150.687 179.549 149.162C177.239 147.637 174.712 148.212 173.319 150.321C172.129 152.124 172.39 153.964 173.399 155.225Z" fill="#4361EE"/>
<path d="M163.446 162.936L157.753 168.234L158.788 169.346L162.501 165.891C162.297 168.42 161.66 171.963 163.59 174.036C165.017 175.571 166.971 175.698 168.705 174.084C170.216 172.678 170.571 170.665 168.896 168.77L167.608 169.969C168.466 170.963 168.573 172.087 167.636 172.959C166.64 173.886 165.687 173.636 164.859 172.746C163.3 171.071 163.981 167.552 164.35 163.909L163.446 162.936Z" fill="#4361EE"/>
<path d="M157.505 175.811C155.584 173.016 153.396 171.413 150.706 173.262C148.016 175.11 148.727 177.727 150.648 180.523C152.532 183.266 154.72 184.868 157.411 183.02C160.101 181.172 159.39 178.554 157.505 175.811ZM152.125 179.508C150.829 177.622 149.894 175.838 151.648 174.633C153.402 173.428 154.732 174.94 156.028 176.826C157.26 178.62 158.222 180.444 156.468 181.649C154.714 182.854 153.357 181.302 152.125 179.508Z" fill="#4361EE"/>
<path d="M143.403 177.921L136.417 181.335L137.084 182.701L141.641 180.474C140.711 182.834 139.072 186.039 140.316 188.584C141.236 190.467 143.069 191.156 145.196 190.116C147.051 189.21 147.976 187.387 146.923 185.087L145.342 185.86C145.875 187.06 145.65 188.167 144.5 188.729C143.278 189.326 142.439 188.81 141.905 187.718C140.9 185.662 142.575 182.493 143.987 179.114L143.403 177.921Z" fill="#4361EE"/>
<path d="M132.332 182.908L124.932 185.294L125.398 186.741L130.225 185.184C128.969 187.388 126.891 190.328 127.76 193.023C128.403 195.018 130.119 195.961 132.373 195.234C134.337 194.601 135.512 192.928 134.798 190.502L133.123 191.042C133.479 192.305 133.1 193.369 131.881 193.762C130.587 194.179 129.829 193.55 129.456 192.392C128.754 190.215 130.862 187.316 132.74 184.172L132.332 182.908Z" fill="#4361EE"/>
<path d="M112.457 192.467L105.899 192.954L106.013 194.486L112.571 193.999L112.457 192.467Z" fill="#4361EE"/>
</svg>
