<svg width="41" height="42" viewBox="0 0 41 42" fill="none" xmlns="http://www.w3.org/2000/svg">
<path d="M38.9666 33.0644L32.2096 26.3074L27.0123 24.1602C28.7429 21.6992 29.67 18.7633 29.6666 15.7548C29.6666 7.66754 23.0872 1.08813 15 1.08813C6.91278 1.08813 0.333374 7.66754 0.333374 15.7548C0.333374 23.842 6.91278 30.4214 15 30.4214C18.0347 30.4249 20.9949 29.4817 23.4682 27.7233L25.6099 32.9066L32.3666 39.664C32.8 40.0973 33.3144 40.4411 33.8806 40.6756C34.4468 40.9102 35.0536 41.0309 35.6665 41.0309C36.2793 41.0309 36.8862 40.9103 37.4524 40.6757C38.0186 40.4412 38.5331 40.0975 38.9664 39.6642C39.3998 39.2308 39.7435 38.7164 39.9781 38.1502C40.2126 37.584 40.3334 36.9772 40.3334 36.3643C40.3334 35.7515 40.2127 35.1446 39.9782 34.5784C39.7437 34.0122 39.4 33.4978 38.9666 33.0644ZM3.00003 15.7548C3.00003 9.13812 8.38336 3.7548 15 3.7548C21.6167 3.7548 27 9.13812 27 15.7548C27 22.3714 21.6167 27.7547 15 27.7547C8.38336 27.7547 3.00003 22.3714 3.00003 15.7548ZM37.0809 37.7784C36.7055 38.1529 36.1969 38.3632 35.6666 38.3632C35.1364 38.3632 34.6278 38.1529 34.2524 37.7784L27.8714 31.3974L25.8802 26.5778L30.7 28.569L37.081 34.95C37.4555 35.3254 37.6658 35.834 37.6658 36.3642C37.6657 36.8945 37.4554 37.403 37.0809 37.7784Z" fill="white" stroke="white" stroke-width="0.6"/>
</svg>
