<svg width="42" height="44" viewBox="0 0 42 44" fill="none" xmlns="http://www.w3.org/2000/svg">
<path d="M40.0773 18.1367L22.3463 1.82412C21.7698 1.29381 21.0108 1.00681 20.2277 1.02312C19.4446 1.03943 18.6981 1.35777 18.1443 1.91162L1.83688 18.2191L1 19.0559V43.0965H16.7143V28.0965H25.2857V43.0965H41V18.9856L40.0773 18.1367ZM20.2891 3.87966C20.3143 3.87966 20.2987 3.8851 20.2879 3.89573C20.2768 3.8851 20.2639 3.87966 20.2891 3.87966ZM38.1429 40.2394H28.1429V28.0965C28.1429 27.3388 27.8418 26.612 27.306 26.0762C26.7702 25.5404 26.0435 25.2394 25.2857 25.2394H16.7143C15.9565 25.2394 15.2298 25.5404 14.694 26.0762C14.1582 26.612 13.8571 27.3388 13.8571 28.0965V40.2394H3.85714L3.85714 20.2394L20.2891 3.93189L20.2913 3.92876L38.1429 20.2394V40.2394Z" fill="white" stroke="white" stroke-width="0.6"/>
</svg>
