<svg width="49" height="36" viewBox="0 0 49 36" fill="none" xmlns="http://www.w3.org/2000/svg">
<path d="M40.6667 8.05962H19.8667V20.1215H17.6513V16.0215C17.6488 13.6985 16.7249 11.4714 15.0823 9.82883C13.4397 8.18621 11.2126 7.26224 8.88965 7.25962H3.86675V0.859619H0.666748V35.2596H3.86675V30.4853L45.4667 30.8181V35.2596H48.6667V16.0596C48.6643 13.9386 47.8207 11.9052 46.3209 10.4054C44.8212 8.90566 42.7877 8.06203 40.6667 8.05962ZM3.86675 10.4596H8.88965C10.3642 10.4613 11.7779 11.0478 12.8205 12.0904C13.8632 13.1331 14.4497 14.5468 14.4513 16.0213V20.1213H3.86675V10.4596ZM45.4667 27.618L3.86675 27.2852V23.3215H45.4667V27.618ZM45.4667 20.1215H23.0667V11.2596H40.6667C41.9393 11.2611 43.1594 11.7673 44.0593 12.6671C44.9591 13.567 45.4653 14.787 45.4667 16.0596V20.1215Z" fill="white"/>
</svg>
