<svg width="20" height="23" viewBox="0 0 20 23" fill="none" xmlns="http://www.w3.org/2000/svg">
<path d="M12.4076 11.2472C12.6672 10.8209 12.9355 10.3801 13.2006 9.92556C14.0877 8.40483 14.2505 6.87253 13.6846 5.37115C12.5427 2.34185 8.72575 0.496136 7.84209 0.201646L7.22073 -0.00561523L6.25093 1.93436L6.71893 2.31669C6.72417 2.3209 7.244 2.77511 7.27865 3.46369C7.30824 4.05149 6.986 4.68668 6.32112 5.35175C5.8594 5.81342 5.35264 6.25985 4.8161 6.73244C2.55865 8.72046 0 10.9744 0 15.2383C0 15.2968 0.000550676 15.355 0.00165204 15.4129C0.0180119 16.3538 0.2201 17.2823 0.596308 18.1449C0.972516 19.0075 1.51543 19.7872 2.19387 20.4394C3.55621 21.7645 5.38285 22.504 7.28332 22.5H11.6306L11.0939 21.411C8.91356 16.9858 10.4555 14.4534 12.4076 11.2472Z" fill="#FF1111"/>
<path d="M19.8229 15.1899C19.8103 15.1399 19.7972 15.0898 19.7835 15.0395C19.2385 13.0414 16.2218 10.4722 15.8797 10.1858L15.1925 9.61084L14.742 10.3853C13.7152 12.1507 12.834 13.7608 12.4499 15.5875C12.0119 17.6707 12.3067 19.7879 13.3515 22.0602L13.5535 22.5H14.067C14.9713 22.5026 15.8642 22.2975 16.6769 21.9006C17.4895 21.5037 18.2001 20.9256 18.7541 20.2107C19.3046 19.5114 19.6873 18.6951 19.8726 17.8246C20.0579 16.9541 20.0409 16.0527 19.8229 15.1899Z" fill="#FF1111"/>
</svg>
